<svg xmlns="http://www.w3.org/2000/svg" viewBox="20 75 889 460" role="img" aria-labelledby="title desc">
  <title id="title">ViralPANA logo</title>
  <desc id="desc">ViralPANA — Viral Pana: The Wave of Truth</desc>
  <defs>
    <linearGradient id="blue" x1="0" y1="0" x2="1" y2="1">
      <stop offset="0" stop-color="#156a9a"/>
      <stop offset=".48" stop-color="#08517f"/>
      <stop offset="1" stop-color="#042d52"/>
    </linearGradient>
    <linearGradient id="orange" x1="0" y1="0" x2="1" y2="1">
      <stop offset="0" stop-color="#ff7a1a"/>
      <stop offset="1" stop-color="#f24313"/>
    </linearGradient>
    <filter id="paper" x="-5%" y="-5%" width="110%" height="110%">
      <feTurbulence type="fractalNoise" baseFrequency="0.09" numOctaves="2" result="noise"/>
      <feColorMatrix type="saturate" values="0"/>
      <feComponentTransfer>
        <feFuncA type="table" tableValues="0 .07"/>
      </feComponentTransfer>
      <feBlend mode="multiply" in2="SourceGraphic"/>
    </filter>
  </defs>

  <rect x="20" y="75" width="889" height="460" rx="18" fill="white"/>

  <g filter="url(#paper)">
    <path fill="url(#blue)" d="M304 471 137 516c-30-10-67-38-86-73-19-36-20-66 2-81 20-14 52-45 73-77 20-31 36-66 23-102-9-26-15-43 8-58 63-42 150 13 150 71v262c0 4-1 9-3 13Z"/>
    <path fill="white" d="M31 432c-3-10 18-100 33-112l227-92 18 40-10 82-48 25c1 14 8 33 17 42l-151 85-86-70Z" style="mix-blend-mode:normal;opacity:.98"/>
    <path fill="url(#blue)" d="M37 429c0-8 34-81 45-87l174-74 12 28-4 43-186 96-41-6Z"/>
    <path fill="url(#blue)" d="M59 395c24-7 39-19 47-36 27-47 94-74 181-83l12 34c-84 12-138 27-161 57l220-63 11 14c-2 7-8 13-18 18L62 501c-27-6-45-41-30-70 6-17 14-28 27-36Z" opacity=".96"/>
    <path fill="url(#blue)" d="M220 355c17-8 32-18 45-32l47-7-13 31-57 57 68-12 3-47 42-12 3 158-235 71c-20-3-28-7-41-22 52-71 76-143 138-187Z"/>
  </g>

  <g filter="url(#paper)">
    <text x="303" y="259" fill="#111" font-family="Georgia, 'Times New Roman', serif" font-size="105" font-style="italic" font-weight="700" letter-spacing="-5">Viral</text>
    <g fill="url(#orange)" font-family="Impact, 'Arial Black', sans-serif" font-weight="900" letter-spacing="2">
      <text x="580" y="272" font-size="111" transform="rotate(-1 580 272)">P</text>
      <text x="655" y="274" font-size="108" transform="rotate(1 655 274)">A</text>
      <text x="734" y="278" font-size="108" transform="rotate(-1 734 278)">N</text>
      <text x="815" y="281" font-size="108" transform="rotate(1 815 281)">A</text>
    </g>
    <text x="391" y="359" fill="#7d7d7d" font-family="Georgia, 'Times New Roman', serif" font-size="38" font-style="italic" font-weight="700">"Viral Pana: The Wave of Truth."</text>
  </g>
</svg>
